# WaveFront *.obj file (generated by CINEMA 4D)

mtllib ./fish.mtl

v -0 -0.67374914884567 -1.12536668777466
v -0 0.51267743110657 -1.39095366001129
v 0 -0.75686204433441 -0.08177027851343
v 0 0.67231208086014 -0.14232188463211
v 0 -0.0485503859818 -2.72704744338989
v 0.36703911423683 -0.0773071795702 -0.11056182533503
v -0.3394384086132 -0.0761027187109 -1.18529987335205
v 0 0.04550918936729 3.3214316368103
v 0 -0.41718861460686 -2.19479894638062
v 0 0.18023355305195 -2.4993109703064
v -0.36703911423683 -0.0773071795702 -0.11056182533503
v 0.24134160578251 -0.03259508684278 1.29871129989624
v 0 -0.01582973822951 3.32757067680359
v 0.00247754668817 0.1187743768096 3.31454706192017
v 0 -0.69663918018341 1.15738606452942
v 0.3394384086132 -0.0761027187109 -1.18529987335205
v 0 0.57405430078506 1.35566115379334
v -0.24134160578251 -0.04164181649685 1.30129361152649
v 0.00000001930442 0.0111037408933 3.82505416870117
v 0.00247754738666 0.6298708319664 3.97619676589966
v 0.00000001984575 0.69235807657242 4.26959133148193
v 0.00000001930442 -0.61519837379456 4.17612218856812
v 0 -0.49450609087944 3.82914209365845
v -0 0.58353793621063 -0.83669644594192
v 0.35169011354446 -0.07663736492395 -0.70823264122009
v -0 -0.71064227819443 -0.66212302446365
v -0.35169011354446 -0.07663736492395 -0.70823264122009
v 0.00123673968483 0.34678807854652 2.33349609375
v 0.12086891382933 0.00639293622226 2.30841112136841
v 0 -0.35679331421852 2.24069690704346
v -0.12086891382933 0.00186214479618 2.30970430374146
v -0.0000000094114 0.98801165819168 -0.12826633453369
v -0.01384715922177 1.26644241809845 -0.55121260881424
v 0.00035906973062 -1.08463895320892 -0.7231684923172
v -0.02467162162066 -1.24654841423035 -0.88863956928253
v 0.00125774496701 -0.74314957857132 1.87361109256744
v 0.00125774496701 -0.91439265012741 1.5827180147171
# 37 vertices

vn -0.88460087776184 0.46465656161308 -0.03969331458211
vn -0.90385347604752 0.42782700061798 0.00359338941053
vn -0.99987280368805 -0.01277273986489 0.00954908784479
vn -0.99911975860596 -0.01232228428125 -0.04009827598929
vn 0.96160531044006 -0.25957450270653 0.0890860632062
vn 0.98343467712402 -0.16987486183643 0.06323575973511
vn 0.9966048002243 -0.00797361228615 0.08194700628519
vn 0.99542856216431 -0.00520369503647 0.09536727517843
vn 0.99986398220062 -0.0122899711132 0.01099902298301
vn 0.95553433895111 0.29487243294716 -0.00208911672235
vn 0.94663429260254 0.32055631279945 -0.033572409302
vn 0.99909865856171 -0.01300019677728 -0.04040833935142
vn -0.96213358640671 0.26323258876801 0.07076425850391
vn -0.98168194293976 0.18258053064346 0.05445049330592
vn -0.99899119138718 0.01313317380846 0.04294307529926
vn -0.9952307343483 0.00208023749292 0.097526922822
vn 0.98313009738922 0.15414078533649 0.09846735745668
vn 0.96365511417389 0.24954849481583 0.09536442905664
vn 0.99468553066254 -0.01655601151288 -0.10161985456944
vn 0.96030241250992 -0.25986555218697 -0.10143571346998
vn 0.92311775684357 -0.37869107723236 -0.06668308377266
vn 0.99723386764526 -0.01320528611541 -0.07314497232437
vn -0.99775803089142 -0.05508868396282 0.03800135850906
vn -0.98112368583679 -0.17613965272903 0.07981971651316
vn -0.9860475063324 -0.09297248721123 -0.13808144629002
vn -0.96900779008865 0.22775322198868 -0.09566801041365
vn -0.93205690383911 0.35575169324875 -0.06863416731358
vn -0.9944167137146 -0.0523446649313 -0.09162677079439
vn -0.95149087905884 -0.3055083155632 -0.03646554425359
vn -0.89959728717804 -0.40394034981728 -0.16600266098976
vn 0.93252581357956 0.35436668992043 -0.06942509114742
vn 0.96900779008865 0.22775320708752 -0.09566801041365
vn 0.87330907583237 -0.48620241880417 -0.03063368983567
vn 0.89296722412109 -0.44989794492722 0.01419273111969
vn 0.92526626586914 0.37264868617058 0.07081902772188
vn 0.99636971950531 -0.00520205870271 0.08497273176908
vn 0.91992688179016 -0.38241901993752 0.08654627948999
vn -0.92564028501511 0.37252515554428 0.06644579023123
vn -0.9964371919632 -0.00723014445975 0.08402797579765
vn -0.96262258291244 -0.26380729675293 0.06134720891714
vn -0.89247304201126 -0.45089671015739 0.01356347929686
vn -0.94321668148041 -0.33202257752419 0.01016551442444
vn -0.99994134902954 0.01073917653412 -0.00140956742689
vn 0 0 0
vn -0.99976533651352 0.02147806063294 -0.00281914463267
vn -0.99992835521698 0.00893731694669 -0.00796156655997
vn -1 0.0000000386083 0.00000005291572
vn 0.99978572130203 0.01141788251698 -0.01726740412414
vn -0.99580007791519 0.00726779922843 0.09126549214125
vn -0.9999812245369 -0.00548418844119 0.00273604295217
# 50 normals

vt 0.31347361207008 0.30099773406982 0
vt 0.40154603123665 0.31093144416809 0
vt 0.40557438135147 0.22705030441284 0
vt 0.32976761460304 0.22712540626526 0
vt 0.70380109548569 0.19577646255493 0
vt 0.84165698289871 0.23392951488495 0
vt 0.84087830781937 0.2407933473587 0
vt 0.71238970756531 0.23641622066498 0
vt 0.71557152271271 0.27450585365295 0
vt 0.84000504016876 0.24899137020111 0
vt 0.71255379915237 0.23590922355652 0
vt 0.07370713353157 0.23026835918427 0
vt 0.1412159204483 0.18901824951172 0
vt 0.27685955166817 0.16030955314636 0
vt 0.26925781369209 0.22718513011932 0
vt 0.10259256511927 0.25586867332458 0
vt 0.2431733161211 0.29306852817535 0
vt 0.3356160223484 0.15618145465851 0
vt 0.40922623872757 0.15100944042206 0
vt 0.59154570102692 0.29993641376495 0
vt 0.58432239294052 0.23205351829529 0
vt 0.56639719009399 0.15774834156036 0
vt 0.58464992046356 0.23104131221771 0
vt 0.90475624799728 0.23694348335266 0
vt 0.3891738653183 0.6560138463974 0
vt 0.92392671108246 0.30618214607239 0
vt 0.96114009618759 0.31317436695099 0
vt 0.94928473234177 0.16686141490936 0
vt 0.90527474880218 0.18036651611328 0
vt 0.40472507476807 0.3349312543869 0
vt 0.3439964056015 0.36406004428864 0
vt 0.33352586627007 0.15311336517334 0
vt 0.30166211724281 0.1091650724411 0
vt 0.28691691160202 0.103635430336 0
vt 0.28561019897461 0.15631437301636 0
vt 0.69526356458664 0.18468749523163 0
vt 0.6686264872551 0.15925931930542 0
vt 0.64751821756363 0.14798891544342 0
vt 0.61665463447571 0.16232049465179 0
# 39 texture coordinates

o maquereau
usemtl Mat.1
f 27/4/4 11/3/3 4/2/2 24/1/1
f 29/8/8 8/7/7 13/6/6 30/5/5
f 25/4/12 24/1/11 4/2/10 6/3/9
f 31/11/16 8/7/15 14/10/14 28/9/13
f 28/9/18 14/10/17 8/7/7 29/8/8
f 16/15/22 1/14/21 9/13/20 5/12/19
f 30/5/24 13/6/23 8/7/15 31/11/16
f 7/15/28 2/17/27 10/16/26 5/12/25
f 5/12/25 9/13/30 1/14/29 7/15/28
f 16/15/22 5/12/19 10/16/32 2/17/31
f 25/4/12 6/3/9 3/19/34 26/18/33
f 12/21/36 6/3/9 4/2/10 17/20/35
f 12/21/36 15/22/37 3/19/34 6/3/9
f 11/3/3 18/23/39 17/20/38 4/2/2
f 18/23/39 11/3/3 3/19/41 15/22/40
f 27/4/4 26/18/42 3/19/41 11/3/3
f 13/6/23 19/24/43 8/7/15
f 8/7/15 19/24/43 14/10/45
f 19/24/43 21/27/46 20/26/46 14/10/45
f 13/6/23 23/29/47 22/28/47 19/24/43
f 25/4/12 16/15/22 2/17/31 24/1/11
f 26/18/33 1/14/21 16/15/22 25/4/12
f 27/4/4 7/15/28 1/14/29 26/18/42
f 24/1/1 2/17/27 7/15/28 27/4/4
f 29/8/8 12/21/36 17/20/35 28/9/18
f 30/5/5 15/22/37 12/21/36 29/8/8
f 31/11/16 18/23/39 15/22/40 30/5/24
f 28/9/13 17/20/38 18/23/39 31/11/16
f 24/1/11 33/31/48 32/30/48 4/2/10
f 1/35/29 35/34/49 34/33/49 26/32/42
f 15/39/40 37/38/50 36/37/50 30/36/24

